<mxfile host="app.diagrams.net" agent="Mozilla/5.0 (Macintosh; Intel Mac OS X 10_15_7) AppleWebKit/537.36 (KHTML, like Gecko) Chrome/123.0.0.0 Safari/537.36" version="24.9.1">
  <diagram name="Page-1" id="nLDjUjYNxLJfrttkRtBk">
    <mxGraphModel dx="1230" dy="723" grid="1" gridSize="10" guides="1" tooltips="1" connect="1" arrows="1" fold="1" page="1" pageScale="1" pageWidth="827" pageHeight="1169" math="0" shadow="0">
      <root>
        <mxCell id="0" />
        <mxCell id="1" parent="0" />
        <mxCell id="AJQYAU3ZHZ8fMyJFjKlh-8" style="rounded=0;orthogonalLoop=1;jettySize=auto;html=1;exitX=1;exitY=1;exitDx=0;exitDy=0;entryX=0;entryY=0;entryDx=0;entryDy=0;endArrow=none;endFill=0;" edge="1" parent="1" source="AJQYAU3ZHZ8fMyJFjKlh-1" target="AJQYAU3ZHZ8fMyJFjKlh-5">
          <mxGeometry relative="1" as="geometry" />
        </mxCell>
        <mxCell id="AJQYAU3ZHZ8fMyJFjKlh-1" value="R1-R2" style="ellipse;whiteSpace=wrap;html=1;aspect=fixed;" vertex="1" parent="1">
          <mxGeometry x="120" y="80" width="80" height="80" as="geometry" />
        </mxCell>
        <mxCell id="AJQYAU3ZHZ8fMyJFjKlh-9" style="edgeStyle=orthogonalEdgeStyle;rounded=0;orthogonalLoop=1;jettySize=auto;html=1;endArrow=none;endFill=0;" edge="1" parent="1" source="AJQYAU3ZHZ8fMyJFjKlh-24" target="AJQYAU3ZHZ8fMyJFjKlh-5">
          <mxGeometry relative="1" as="geometry" />
        </mxCell>
        <mxCell id="AJQYAU3ZHZ8fMyJFjKlh-2" value="R1-R3" style="ellipse;whiteSpace=wrap;html=1;aspect=fixed;" vertex="1" parent="1">
          <mxGeometry x="260" y="80" width="80" height="80" as="geometry" />
        </mxCell>
        <mxCell id="AJQYAU3ZHZ8fMyJFjKlh-10" style="edgeStyle=orthogonalEdgeStyle;rounded=0;orthogonalLoop=1;jettySize=auto;html=1;exitX=0.5;exitY=1;exitDx=0;exitDy=0;entryX=0.5;entryY=0;entryDx=0;entryDy=0;endArrow=none;endFill=0;" edge="1" parent="1" source="AJQYAU3ZHZ8fMyJFjKlh-31" target="AJQYAU3ZHZ8fMyJFjKlh-6">
          <mxGeometry relative="1" as="geometry" />
        </mxCell>
        <mxCell id="AJQYAU3ZHZ8fMyJFjKlh-3" value="L1-L3" style="ellipse;whiteSpace=wrap;html=1;aspect=fixed;" vertex="1" parent="1">
          <mxGeometry x="480" y="80" width="80" height="80" as="geometry" />
        </mxCell>
        <mxCell id="AJQYAU3ZHZ8fMyJFjKlh-11" style="rounded=0;orthogonalLoop=1;jettySize=auto;html=1;exitX=0;exitY=1;exitDx=0;exitDy=0;entryX=0.5;entryY=0;entryDx=0;entryDy=0;endArrow=none;endFill=0;" edge="1" parent="1" source="AJQYAU3ZHZ8fMyJFjKlh-4" target="AJQYAU3ZHZ8fMyJFjKlh-6">
          <mxGeometry relative="1" as="geometry" />
        </mxCell>
        <mxCell id="AJQYAU3ZHZ8fMyJFjKlh-4" value="L1-L2&lt;span style=&quot;color: rgba(0, 0, 0, 0); font-family: monospace; font-size: 0px; text-align: start; text-wrap: nowrap;&quot;&gt;%3CmxGraphModel%3E%3Croot%3E%3CmxCell%20id%3D%220%22%2F%3E%3CmxCell%20id%3D%221%22%20parent%3D%220%22%2F%3E%3CmxCell%20id%3D%222%22%20value%3D%22%22%20style%3D%22ellipse%3BwhiteSpace%3Dwrap%3Bhtml%3D1%3Baspect%3Dfixed%3B%22%20vertex%3D%221%22%20parent%3D%221%22%3E%3CmxGeometry%20x%3D%22120%22%20y%3D%2280%22%20width%3D%2280%22%20height%3D%2280%22%20as%3D%22geometry%22%2F%3E%3C%2FmxCell%3E%3C%2Froot%3E%3C%2FmxGraphModel%3E&lt;/span&gt;" style="ellipse;whiteSpace=wrap;html=1;aspect=fixed;" vertex="1" parent="1">
          <mxGeometry x="620" y="80" width="80" height="80" as="geometry" />
        </mxCell>
        <mxCell id="AJQYAU3ZHZ8fMyJFjKlh-13" style="rounded=0;orthogonalLoop=1;jettySize=auto;html=1;exitX=1;exitY=1;exitDx=0;exitDy=0;entryX=0.5;entryY=0;entryDx=0;entryDy=0;endArrow=none;endFill=0;startArrow=classic;startFill=1;" edge="1" parent="1" source="AJQYAU3ZHZ8fMyJFjKlh-5" target="AJQYAU3ZHZ8fMyJFjKlh-12">
          <mxGeometry relative="1" as="geometry">
            <Array as="points" />
          </mxGeometry>
        </mxCell>
        <mxCell id="AJQYAU3ZHZ8fMyJFjKlh-5" value="B3-R1" style="ellipse;whiteSpace=wrap;html=1;aspect=fixed;" vertex="1" parent="1">
          <mxGeometry x="260" y="220" width="80" height="80" as="geometry" />
        </mxCell>
        <mxCell id="AJQYAU3ZHZ8fMyJFjKlh-14" style="rounded=0;orthogonalLoop=1;jettySize=auto;html=1;exitX=0;exitY=1;exitDx=0;exitDy=0;entryX=0.5;entryY=0;entryDx=0;entryDy=0;endArrow=none;endFill=0;" edge="1" parent="1" source="AJQYAU3ZHZ8fMyJFjKlh-6" target="AJQYAU3ZHZ8fMyJFjKlh-12">
          <mxGeometry relative="1" as="geometry" />
        </mxCell>
        <mxCell id="AJQYAU3ZHZ8fMyJFjKlh-6" value="B2-L1" style="ellipse;whiteSpace=wrap;html=1;aspect=fixed;" vertex="1" parent="1">
          <mxGeometry x="480" y="220" width="80" height="80" as="geometry" />
        </mxCell>
        <mxCell id="AJQYAU3ZHZ8fMyJFjKlh-7" value="Head-B1-B4" style="ellipse;whiteSpace=wrap;html=1;aspect=fixed;" vertex="1" parent="1">
          <mxGeometry x="620" y="220" width="80" height="80" as="geometry" />
        </mxCell>
        <mxCell id="AJQYAU3ZHZ8fMyJFjKlh-15" style="rounded=0;orthogonalLoop=1;jettySize=auto;html=1;exitX=0.5;exitY=0;exitDx=0;exitDy=0;entryX=0;entryY=1;entryDx=0;entryDy=0;endArrow=none;endFill=0;" edge="1" parent="1" source="AJQYAU3ZHZ8fMyJFjKlh-12" target="AJQYAU3ZHZ8fMyJFjKlh-7">
          <mxGeometry relative="1" as="geometry" />
        </mxCell>
        <mxCell id="AJQYAU3ZHZ8fMyJFjKlh-19" style="edgeStyle=orthogonalEdgeStyle;rounded=0;orthogonalLoop=1;jettySize=auto;html=1;exitX=0.5;exitY=1;exitDx=0;exitDy=0;endArrow=none;endFill=0;" edge="1" parent="1" source="AJQYAU3ZHZ8fMyJFjKlh-12" target="AJQYAU3ZHZ8fMyJFjKlh-18">
          <mxGeometry relative="1" as="geometry" />
        </mxCell>
        <mxCell id="AJQYAU3ZHZ8fMyJFjKlh-12" value="B2-B4-B3" style="ellipse;whiteSpace=wrap;html=1;aspect=fixed;" vertex="1" parent="1">
          <mxGeometry x="430" y="420" width="80" height="80" as="geometry" />
        </mxCell>
        <mxCell id="AJQYAU3ZHZ8fMyJFjKlh-21" style="rounded=0;orthogonalLoop=1;jettySize=auto;html=1;exitX=0;exitY=1;exitDx=0;exitDy=0;entryX=0.5;entryY=0;entryDx=0;entryDy=0;endArrow=none;endFill=0;" edge="1" parent="1" source="AJQYAU3ZHZ8fMyJFjKlh-16" target="AJQYAU3ZHZ8fMyJFjKlh-18">
          <mxGeometry relative="1" as="geometry" />
        </mxCell>
        <mxCell id="AJQYAU3ZHZ8fMyJFjKlh-16" value="H2-B4" style="ellipse;whiteSpace=wrap;html=1;aspect=fixed;" vertex="1" parent="1">
          <mxGeometry x="650" y="460" width="80" height="80" as="geometry" />
        </mxCell>
        <mxCell id="AJQYAU3ZHZ8fMyJFjKlh-20" style="rounded=0;orthogonalLoop=1;jettySize=auto;html=1;exitX=1;exitY=1;exitDx=0;exitDy=0;entryX=0.5;entryY=0;entryDx=0;entryDy=0;endArrow=none;endFill=0;" edge="1" parent="1" source="AJQYAU3ZHZ8fMyJFjKlh-17" target="AJQYAU3ZHZ8fMyJFjKlh-18">
          <mxGeometry relative="1" as="geometry" />
        </mxCell>
        <mxCell id="AJQYAU3ZHZ8fMyJFjKlh-17" value="H1-B1" style="ellipse;whiteSpace=wrap;html=1;aspect=fixed;" vertex="1" parent="1">
          <mxGeometry x="220" y="460" width="80" height="80" as="geometry" />
        </mxCell>
        <mxCell id="AJQYAU3ZHZ8fMyJFjKlh-18" value="B1-B4-B2" style="ellipse;whiteSpace=wrap;html=1;aspect=fixed;" vertex="1" parent="1">
          <mxGeometry x="430" y="580" width="80" height="80" as="geometry" />
        </mxCell>
        <mxCell id="AJQYAU3ZHZ8fMyJFjKlh-22" value="R1" style="rounded=1;whiteSpace=wrap;html=1;rotation=45;" vertex="1" parent="1">
          <mxGeometry x="200" y="170" width="60" height="30" as="geometry" />
        </mxCell>
        <mxCell id="AJQYAU3ZHZ8fMyJFjKlh-26" value="" style="edgeStyle=orthogonalEdgeStyle;rounded=0;orthogonalLoop=1;jettySize=auto;html=1;endArrow=none;endFill=0;" edge="1" parent="1" source="AJQYAU3ZHZ8fMyJFjKlh-2" target="AJQYAU3ZHZ8fMyJFjKlh-24">
          <mxGeometry relative="1" as="geometry">
            <mxPoint x="300" y="160" as="sourcePoint" />
            <mxPoint x="300" y="220" as="targetPoint" />
          </mxGeometry>
        </mxCell>
        <mxCell id="AJQYAU3ZHZ8fMyJFjKlh-24" value="R1" style="rounded=1;whiteSpace=wrap;html=1;rotation=90;" vertex="1" parent="1">
          <mxGeometry x="281.5" y="180" width="37" height="20" as="geometry" />
        </mxCell>
        <mxCell id="AJQYAU3ZHZ8fMyJFjKlh-27" value="L1" style="rounded=1;whiteSpace=wrap;html=1;rotation=-30;" vertex="1" parent="1">
          <mxGeometry x="540" y="175" width="60" height="30" as="geometry" />
        </mxCell>
        <mxCell id="AJQYAU3ZHZ8fMyJFjKlh-33" value="" style="edgeStyle=orthogonalEdgeStyle;rounded=0;orthogonalLoop=1;jettySize=auto;html=1;exitX=0.5;exitY=1;exitDx=0;exitDy=0;entryX=0.5;entryY=0;entryDx=0;entryDy=0;endArrow=none;endFill=0;" edge="1" parent="1" source="AJQYAU3ZHZ8fMyJFjKlh-3" target="AJQYAU3ZHZ8fMyJFjKlh-31">
          <mxGeometry relative="1" as="geometry">
            <mxPoint x="520" y="160" as="sourcePoint" />
            <mxPoint x="520" y="220" as="targetPoint" />
          </mxGeometry>
        </mxCell>
        <mxCell id="AJQYAU3ZHZ8fMyJFjKlh-31" value="L1" style="rounded=1;whiteSpace=wrap;html=1;rotation=90;" vertex="1" parent="1">
          <mxGeometry x="501.5" y="175" width="37" height="20" as="geometry" />
        </mxCell>
        <mxCell id="AJQYAU3ZHZ8fMyJFjKlh-34" value="B4" style="rounded=1;whiteSpace=wrap;html=1;rotation=-45;" vertex="1" parent="1">
          <mxGeometry x="530" y="340" width="60" height="30" as="geometry" />
        </mxCell>
        <mxCell id="AJQYAU3ZHZ8fMyJFjKlh-37" value="B2" style="rounded=1;whiteSpace=wrap;html=1;rotation=-75;" vertex="1" parent="1">
          <mxGeometry x="460" y="340" width="60" height="30" as="geometry" />
        </mxCell>
        <mxCell id="AJQYAU3ZHZ8fMyJFjKlh-38" value="B3" style="rounded=1;whiteSpace=wrap;html=1;rotation=30;" vertex="1" parent="1">
          <mxGeometry x="360" y="330" width="60" height="30" as="geometry" />
        </mxCell>
        <mxCell id="AJQYAU3ZHZ8fMyJFjKlh-40" value="B4" style="rounded=1;whiteSpace=wrap;html=1;rotation=-15;" vertex="1" parent="1">
          <mxGeometry x="540" y="540" width="60" height="30" as="geometry" />
        </mxCell>
        <mxCell id="AJQYAU3ZHZ8fMyJFjKlh-41" value="B4 B2" style="rounded=1;whiteSpace=wrap;html=1;rotation=-90;" vertex="1" parent="1">
          <mxGeometry x="450" y="520" width="60" height="30" as="geometry" />
        </mxCell>
        <mxCell id="AJQYAU3ZHZ8fMyJFjKlh-43" value="B1" style="rounded=1;whiteSpace=wrap;html=1;rotation=15;" vertex="1" parent="1">
          <mxGeometry x="340" y="540" width="60" height="30" as="geometry" />
        </mxCell>
      </root>
    </mxGraphModel>
  </diagram>
</mxfile>
